<svg width="305" height="64" viewBox="0 0 305 64" fill="none" xmlns="http://www.w3.org/2000/svg">
<path fill-rule="evenodd" clip-rule="evenodd" d="M42.1379 42.5463C42.1379 42.0936 42.3096 40.1018 42.3096 38.4726C42.3096 22.8127 35.2577 15.1165 22.0154 15.1165C9.45925 15.1165 -0.000976562 24.532 -0.000976562 39.8307C-0.000976562 54.7668 8.08336 64 22.874 64C31.9035 64 36.9785 61.5555 40.591 59.3848V50.6924H36.7202C33.7974 52.9567 29.8407 54.6774 24.7679 54.6774C17.8005 54.6774 13.5018 52.052 12.8986 42.5463H42.1379ZM22.0196 23.4466C26.9207 23.4466 29.6725 26.1607 29.9308 34.5807H13.0745C14.0218 25.7087 17.6336 23.4466 22.0196 23.4466ZM60.288 7.423C60.288 1.08638 59.5146 0 55.3876 0H47.7333V63.3676H60.288V48.4301L64.933 43.3615L76.886 63.3676H88.4963V59.7459L73.3601 34.4888L86.6897 19.2823V15.8408H76.3701L60.288 34.9415V7.423ZM111.439 64C124.165 64 134.486 55.0379 134.486 39.8307C134.486 24.532 124.165 15.1165 111.439 15.1165C98.7103 15.1165 88.3908 24.532 88.3908 39.8307C88.3908 55.0379 98.7103 64 111.439 64ZM111.43 54.5857C105.324 54.5857 101.111 50.1501 101.111 39.9214C101.111 29.6019 105.324 24.5318 111.43 24.5318C117.535 24.5318 121.749 29.6019 121.749 39.9214C121.749 50.1501 117.535 54.5857 111.43 54.5857ZM148.056 15.841H139.542V63.3678H152.098V27.8813C154.936 26.7956 158.462 25.7085 162.332 25.7085C166.202 25.7085 167.922 27.0674 167.922 31.7741V63.3678H180.476V28.4248C180.476 17.7427 174.888 15.1165 168.352 15.1165C162.332 15.1165 156.14 17.6526 151.927 20.911C151.41 16.8373 150.206 15.841 148.056 15.841ZM208.459 64C221.187 64 231.508 55.0379 231.508 39.8307C231.508 24.532 221.187 15.1165 208.459 15.1165C195.732 15.1165 185.411 24.532 185.411 39.8307C185.411 55.0379 195.732 64 208.459 64ZM208.469 54.5857C202.364 54.5857 198.151 50.1501 198.151 39.9214C198.151 29.6019 202.364 24.5318 208.469 24.5318C214.576 24.5318 218.789 29.6019 218.789 39.9214C218.789 50.1501 214.576 54.5857 208.469 54.5857ZM245.095 15.841H236.581V63.3678H249.136V27.8813C251.888 26.885 255.156 25.7085 258.768 25.7085C262.551 25.7085 264.014 27.2476 264.014 31.7741V63.3678H276.57V27.9721C279.235 26.885 282.589 25.7085 286.201 25.7085C289.986 25.7085 291.448 27.2476 291.448 31.7741V63.3678H304.003V28.4248C304.003 18.1954 298.584 15.1165 292.221 15.1165C286.287 15.1165 280.095 17.4709 275.538 21.1835C273.646 16.5655 269.432 15.1165 264.788 15.1165C258.768 15.1165 252.922 17.6526 248.878 20.8202C248.448 16.8373 247.243 15.841 245.095 15.841Z" fill="black"/>
</svg>
