<svg xmlns="http://www.w3.org/2000/svg" viewBox="0 0 115.26 51">
	<path
		d="M93.57,32.39l7-14.9V14.36H88.51v4.31H95L88,33.67v3h12.79V32.39ZM79.7,37.09c4.53,0,7.11-2.53,7.2-7.22H82.37c-.12,2-.91,2.81-2.67,2.81-1.4,0-2.17-.89-2.17-2.81V21.19c0-2,.8-2.87,2.17-2.87,1.72,0,2.49.83,2.61,2.87h4.53c-.16-4.72-2.64-7.27-7.11-7.27s-6.91,2.55-6.91,7.27v8.68c0,4.69,2.55,7.22,6.88,7.22m-10.78,0A2.26,2.26,0,0,0,71.31,35a1.22,1.22,0,0,0,0-.27A2.25,2.25,0,0,0,69.2,32.3h-.28a2.26,2.26,0,0,0-2.39,2.12v.27a2.27,2.27,0,0,0,2.12,2.4h.27M57.85,32.68c-1.69,0-2.55-1.12-2.55-3.22V21.61c0-2.11.86-3.23,2.55-3.23s2.55,1.12,2.55,3.23v7.85c0,2.1-.86,3.22-2.55,3.22m0,4.41c4.53,0,7.24-2.85,7.24-7.63V21.61c0-4.79-2.71-7.63-7.24-7.63s-7.24,2.84-7.24,7.63v7.85c0,4.79,2.71,7.63,7.24,7.63M48.94,18.67V14.36h-11V36.7h4.53V27.45H48.3V23.3H42.44V18.67ZM30.48,14.36v5.18a77,77,0,0,0,.63,8.71l-.1.1c-.54-1.4-1.05-2.87-1.59-4.28l-4.24-9.7H20.72V36.7h4.46V32.17a93.83,93.83,0,0,0-.57-9.48l.1-.1,2,5.46,3.77,8.65h4.46V14.36ZM13.26,36.7h4.52V14.36H13.26Z"
		fill="currentColor"/>
</svg>